<?xml version="1.0" standalone="no"?>
<!DOCTYPE svg PUBLIC "-//W3C//DTD SVG 20010904//EN"
 "http://www.w3.org/TR/2001/REC-SVG-20010904/DTD/svg10.dtd">
<svg version="1.0" xmlns="http://www.w3.org/2000/svg"
 width="595.000000pt" height="702.000000pt" viewBox="0 0 595.000000 702.000000"
 preserveAspectRatio="xMidYMid meet">

<g transform="translate(0.000000,702.000000) scale(0.100000,-0.100000)"
fill="#696969" stroke="none">
<path d="M4780 6714 c-14 -2 -148 -11 -298 -19 -151 -9 -297 -20 -325 -26 -61
-11 -101 -37 -105 -68 -2 -13 17 -84 41 -159 25 -76 52 -160 60 -187 l15 -51
-39 -27 -39 -28 -58 34 c-127 77 -382 189 -580 256 -251 85 -606 164 -790 177
-57 4 -109 15 -152 31 -92 36 -218 56 -325 51 -74 -3 -101 -9 -155 -34 -36
-17 -81 -45 -100 -61 -19 -17 -51 -34 -70 -38 -73 -16 -237 -78 -340 -130
-503 -252 -832 -673 -1026 -1310 -74 -241 -108 -464 -107 -705 0 -190 12 -286
54 -459 41 -167 94 -300 204 -516 82 -161 94 -189 105 -266 15 -99 12 -134
-28 -409 l-30 -205 -55 -56 c-29 -30 -66 -81 -81 -113 -47 -100 -45 -250 5
-365 l19 -44 -44 -41 c-56 -52 -87 -115 -93 -187 -6 -59 9 -143 34 -191 12
-25 11 -33 -13 -79 -30 -61 -41 -138 -25 -195 14 -50 78 -125 137 -160 l44
-26 0 -58 c0 -75 11 -104 50 -127 20 -11 41 -38 56 -70 36 -76 89 -115 269
-203 426 -207 720 -301 945 -302 58 0 125 5 150 12 59 15 174 83 230 135 39
37 52 43 102 48 130 12 254 131 275 263 4 23 14 35 39 47 54 26 115 88 140
142 19 39 24 68 24 130 l1 80 69 33 c131 64 218 180 241 323 6 35 8 83 4 107
-5 37 -2 51 28 105 98 173 225 343 288 382 21 14 116 57 211 96 406 167 599
289 819 515 172 178 281 336 404 589 147 301 232 583 266 875 13 118 7 381
-11 473 -6 33 -10 61 -8 63 2 2 26 -13 54 -33 27 -19 72 -46 101 -60 50 -23
53 -23 84 -8 22 12 44 15 78 10 59 -7 103 6 169 51 87 61 82 102 -22 153 -172
84 -358 237 -421 344 -15 26 -26 50 -23 52 2 2 26 -12 54 -31 94 -69 167 -90
206 -60 25 18 38 52 123 327 73 235 75 246 75 345 0 295 -122 535 -347 684
-102 68 -261 147 -329 165 -52 13 -166 18 -234 9z m172 -115 c116 -25 336
-147 428 -239 117 -117 178 -267 187 -465 l6 -111 -73 -234 c-40 -129 -75
-238 -77 -243 -6 -11 -107 63 -193 141 l-74 69 27 32 c32 38 34 67 11 160 -48
196 -195 407 -364 521 -82 56 -230 125 -312 147 l-66 17 -87 -58 c-48 -31 -88
-56 -90 -54 -1 2 -12 35 -24 73 -13 39 -27 79 -32 90 -8 19 -39 105 -39 110 0
6 130 15 395 30 154 9 287 17 295 19 8 2 18 4 22 5 4 0 31 -4 60 -10z m-2086
-159 c220 -39 557 -136 724 -207 l44 -20 -48 -12 c-93 -23 -147 -61 -172 -120
-20 -47 -22 -115 -4 -136 8 -9 52 -36 99 -60 219 -110 429 -276 547 -432 45
-60 60 -73 83 -73 40 0 58 26 82 116 30 110 31 276 3 356 -11 31 -16 54 -10
51 82 -47 298 -226 398 -331 436 -459 578 -998 423 -1612 -73 -286 -209 -596
-364 -826 -239 -355 -503 -556 -976 -744 -244 -97 -298 -135 -416 -293 -53
-70 -149 -225 -210 -336 l-24 -44 -80 6 c-305 21 -1244 341 -1685 574 -210
110 -331 201 -361 269 -18 40 -18 45 2 180 12 77 22 197 22 269 2 159 -4 179
-122 405 -162 310 -220 459 -263 674 -20 96 -23 141 -23 336 1 173 5 248 19
325 54 301 167 625 294 848 176 309 456 571 763 716 58 27 117 53 131 56 l26
7 -24 -76 c-27 -85 -29 -108 -14 -137 14 -26 50 -24 127 7 160 63 436 95 668
75 l140 -11 27 29 c34 37 51 101 43 152 -8 47 -15 46 131 19z m1541 -303 c257
-159 440 -341 536 -535 l41 -83 -37 -37 -37 -37 -17 25 c-124 176 -364 401
-586 546 l-108 71 63 41 c35 22 70 41 78 41 8 0 38 -14 67 -32z m-3539 -3737
c152 -149 485 -319 982 -505 107 -40 215 -79 239 -86 23 -7 45 -19 48 -26 15
-40 -70 -283 -100 -283 -23 0 -289 85 -475 152 -364 130 -797 314 -824 350
-67 88 -93 255 -51 333 19 37 99 125 113 125 3 0 34 -27 68 -60z m-2 -595
c326 -148 710 -292 1062 -398 186 -56 202 -63 202 -84 0 -13 -3 -23 -6 -23 -4
0 -75 20 -158 45 -333 98 -733 244 -1085 397 -176 77 -196 79 -196 22 0 -27 7
-32 125 -86 345 -157 923 -365 1267 -457 l41 -11 -10 -38 c-21 -76 -14 -74
-145 -36 -213 63 -562 174 -945 300 l-377 124 -27 58 c-35 73 -38 148 -8 189
17 23 79 73 90 73 2 0 79 -34 170 -75z m169 -498 c391 -129 838 -270 1010
-317 85 -23 105 -34 90 -49 -6 -6 -80 12 -190 45 -196 60 -1099 339 -1233 382
-63 20 -87 24 -100 16 -22 -14 -27 -41 -12 -59 16 -19 505 -177 1219 -394 145
-44 266 -83 269 -85 3 -4 -35 -76 -41 -76 -3 0 -683 228 -1027 344 -140 47
-262 91 -270 96 -8 5 -43 23 -77 39 -66 31 -96 66 -96 111 0 37 23 92 37 87 6
-2 195 -65 421 -140z m498 -491 c565 -190 568 -191 562 -216 -10 -40 -18 -42
-101 -30 -254 37 -869 259 -1151 416 -69 39 -88 57 -80 78 5 12 24 8 104 -21
54 -20 354 -122 666 -227z"/>
<path d="M2145 6076 c-148 -47 -235 -153 -238 -291 -1 -35 -5 -58 -9 -51 -14
21 -8 85 14 152 23 70 19 95 -16 102 -46 9 -90 -96 -90 -213 l0 -70 -12 40
c-7 22 -13 63 -13 92 -1 60 -24 83 -61 63 -17 -9 -20 -21 -20 -89 0 -67 4 -87
28 -132 17 -32 41 -61 60 -72 33 -19 33 -19 56 2 12 11 27 21 33 21 6 0 16 7
24 16 11 14 16 10 37 -33 30 -60 75 -108 127 -136 58 -32 215 -30 298 2 82 32
136 77 170 141 27 51 29 61 25 146 -3 78 -8 100 -36 157 -38 76 -93 129 -160
151 -54 19 -161 20 -217 2z m178 -110 c46 -19 94 -78 112 -138 26 -87 17 -139
-32 -190 -60 -63 -225 -92 -294 -52 -78 45 -112 187 -67 273 27 53 58 77 129
102 65 22 108 24 152 5z"/>
<path d="M2174 5901 c-47 -29 -64 -59 -64 -114 0 -70 30 -97 105 -97 63 0 104
17 129 54 31 48 13 126 -36 160 -31 22 -96 20 -134 -3z"/>
<path d="M3393 5650 c-63 -13 -151 -60 -199 -106 -32 -32 -47 -58 -63 -109
-60 -193 6 -334 190 -405 94 -36 223 -51 278 -32 27 10 31 9 31 -7 0 -48 45
-53 110 -11 140 90 256 285 190 320 -29 16 -56 -3 -71 -47 -13 -42 -56 -108
-88 -137 l-20 -19 18 39 c65 136 47 300 -43 401 -49 55 -129 98 -207 113 -58
11 -67 11 -126 0z m138 -122 c61 -20 116 -65 139 -114 19 -38 22 -57 18 -119
-9 -134 -59 -189 -173 -189 -88 0 -203 43 -248 93 -42 46 -52 94 -36 169 9 46
19 65 54 98 67 65 165 90 246 62z"/>
<path d="M3383 5489 c-108 -32 -113 -191 -7 -235 41 -17 91 -18 124 -1 82 42
95 183 19 222 -37 20 -98 26 -136 14z"/>
<path d="M1647 5319 c-152 -20 -266 -77 -378 -188 -88 -88 -141 -173 -210
-338 -60 -139 -100 -198 -172 -247 -96 -66 -145 -49 -168 62 -18 88 -67 118
-108 66 -55 -70 -67 -330 -22 -464 98 -287 397 -497 841 -590 58 -12 117 -25
132 -28 l27 -7 -36 -55 c-61 -94 -151 -291 -174 -379 -30 -117 -24 -254 13
-326 96 -185 371 -261 652 -180 202 58 426 198 622 387 l50 48 77 -35 c263
-121 546 -187 807 -187 341 -1 622 102 841 309 73 69 88 99 70 139 -10 22 -17
24 -73 24 -194 0 -269 98 -289 374 -5 77 -17 179 -25 226 -31 174 -119 389
-222 545 -64 96 -202 232 -293 288 -145 90 -323 136 -478 124 l-76 -6 -19 47
c-41 98 -186 212 -336 262 -82 28 -200 30 -286 6 l-61 -18 -114 45 c-136 54
-243 83 -364 97 -102 11 -132 11 -228 -1z m1013 -241 c167 -51 303 -193 286
-299 -9 -58 -33 -89 -91 -115 -113 -53 -297 -19 -430 81 -139 104 -164 224
-61 294 84 58 189 71 296 39z"/>
<path d="M3949 5163 c-8 -10 -21 -31 -29 -47 -21 -42 -80 -102 -119 -123 -51
-28 -60 -48 -34 -74 21 -22 23 -22 66 -5 75 28 187 164 187 225 0 19 -26 41
-48 41 -5 0 -15 -8 -23 -17z"/>
<path d="M1237 2963 c-53 -60 -62 -256 -15 -348 30 -57 107 -134 164 -163 115
-58 256 -86 424 -85 193 1 352 36 379 84 13 24 13 29 -2 53 -21 32 -40 32
-143 4 -113 -30 -354 -31 -467 0 -142 39 -226 97 -257 177 -17 42 -14 142 4
194 20 55 20 57 -4 81 -25 25 -62 26 -83 3z"/>
</g>
</svg>
